<?xml version="1.0" encoding="UTF-8" standalone="no"?>
<!-- Created with Inkscape (http://www.inkscape.org/) -->

<svg
   width="128"
   height="128"
   viewBox="0 0 128 128"
   version="1.1"
   id="svg1"
   inkscape:version="1.3.2 (1:1.3.2+202311252150+091e20ef0f)"
   sodipodi:docname="qr.svg"
   inkscape:export-filename="qr.png"
   inkscape:export-xdpi="96"
   inkscape:export-ydpi="96"
   xmlns:inkscape="http://www.inkscape.org/namespaces/inkscape"
   xmlns:sodipodi="http://sodipodi.sourceforge.net/DTD/sodipodi-0.dtd"
   xmlns:xlink="http://www.w3.org/1999/xlink"
   xmlns="http://www.w3.org/2000/svg"
   xmlns:svg="http://www.w3.org/2000/svg"
   xmlns:rdf="http://www.w3.org/1999/02/22-rdf-syntax-ns#"
   xmlns:cc="http://creativecommons.org/ns#">
  <sodipodi:namedview
     id="namedview1"
     pagecolor="#505050"
     bordercolor="#ffffff"
     borderopacity="1"
     inkscape:showpageshadow="false"
     inkscape:pageopacity="0"
     inkscape:pagecheckerboard="true"
     inkscape:deskcolor="#898989"
     inkscape:document-units="px"
     labelstyle="default"
     inkscape:zoom="2.1054688"
     inkscape:cx="41.795917"
     inkscape:cy="83.591835"
     inkscape:window-width="1536"
     inkscape:window-height="840"
     inkscape:window-x="0"
     inkscape:window-y="0"
     inkscape:window-maximized="1"
     inkscape:current-layer="svg1"
     showgrid="false"
     showborder="true"
     inkscape:clip-to-page="false"
     showguides="true"
     guidecolor="#ffffff"
     guideopacity="0.6" />
  <defs
     id="defs1">
    <color-profile
       name="Compatible-with-Adobe-RGB-1998"
       xlink:href="file:///usr/share/color/icc/colord/AdobeRGB1998.icc"
       id="color-profile1" />
  </defs>
  <g
     inkscape:label="Layer 1"
     inkscape:groupmode="layer"
     id="layer1"
     transform="translate(-666.386,-425.109)" />
  <metadata
     id="metadata1">
    <rdf:RDF>
      <cc:Work
         rdf:about="">
        <cc:license
           rdf:resource="https://healingdrawing.github.io/info/license/fpl.html" />
      </cc:Work>
    </rdf:RDF>
  </metadata>
  <rect
     x="0"
     y="0"
     width="128"
     height="128"
     style="fill:#d6cfc2;stroke:none;stroke-width:0.999995;fill-opacity:1"
     id="rect321" />
  <g
     style="fill:#000000;stroke:none"
     id="g321"
     transform="translate(-10,-10)">
    <path
       d="m 128,132 h -4 c 0,0 0,0 0,0 v -8 c 0,0 0,0 0,0 h 4 c 0,0 0,0 0,0 z m -8,0 h -4 c 0,0 0,0 0,0 v -4 c 0,0 0,0 0,0 h -4 c 0,0 0,0 0,0 v -4 c 0,0 0,0 0,0 h 8 c 0,0 0,0 0,0 z m -12,0 h -4 c 0,0 0,0 0,0 v -4 c 0,0 0,0 0,0 h 4 c 0,0 0,0 0,0 z m -8,0 h -4 c 0,0 0,0 0,0 v -12 c 0,0 0,0 0,0 h -8 c 0,0 0,0 0,0 v 4 c 0,0 0,0 0,0 h -4 c 0,0 0,0 0,0 v -4 c 0,0 0,0 0,0 h -8 c 0,0 0,0 0,0 v -4 c 0,0 0,0 0,0 h 8 c 0,0 0,0 0,0 v -4 c 0,0 0,0 0,0 h 4 c 0,0 0,0 0,0 v 4 c 0,0 0,0 0,0 h 8 c 0,0 0,0 0,0 v -8 c 0,0 0,0 0,0 H 84 c 0,0 0,0 0,0 v 4 c 0,0 0,0 0,0 h -4 c 0,0 0,0 0,0 v -12 c 0,0 0,0 0,0 h -8 c 0,0 0,0 0,0 V 88 c 0,0 0,0 0,0 h 4 c 0,0 0,0 0,0 v -4 c 0,0 0,0 0,0 h 4 c 0,0 0,0 0,0 v 8 c 0,0 0,0 0,0 h 12 c 0,0 0,0 0,0 v 4 c 0,0 0,0 0,0 h 8 c 0,0 0,0 0,0 v -8 c 0,0 0,0 0,0 h 4 c 0,0 0,0 0,0 v 8 c 0,0 0,0 0,0 h 4 c 0,0 0,0 0,0 V 84 c 0,0 0,0 0,0 h 4 c 0,0 0,0 0,0 v 4 c 0,0 0,0 0,0 h 4 c 0,0 0,0 0,0 v 4 c 0,0 0,0 0,0 h -4 c 0,0 0,0 0,0 v 4 c 0,0 0,0 0,0 h 8 c 0,0 0,0 0,0 v -8 c 0,0 0,0 0,0 h -4 c 0,0 0,0 0,0 v -4 c 0,0 0,0 0,0 h -4 c 0,0 0,0 0,0 v -8 c 0,0 0,0 0,0 h -8 c 0,0 0,0 0,0 v -4 c 0,0 0,0 0,0 h -4 c 0,0 0,0 0,0 v -4 c 0,0 0,0 0,0 h 8 c 0,0 0,0 0,0 v 4 c 0,0 0,0 0,0 h 8 c 0,0 0,0 0,0 v 8 c 0,0 0,0 0,0 h 4 c 0,0 0,0 0,0 v 4 c 0,0 0,0 0,0 h 4 c 0,0 0,0 0,0 v -8 c 0,0 0,0 0,0 h -4 c 0,0 0,0 0,0 v -8 c 0,0 0,0 0,0 h -4 c 0,0 0,0 0,0 v -4 c 0,0 0,0 0,0 h 8 c 0,0 0,0 0,0 v 4 c 0,0 0,0 0,0 h 8 c 0,0 0,0 0,0 v 8 c 0,0 0,0 0,0 h -4 c 0,0 0,0 0,0 v 12 c 0,0 0,0 0,0 h -4 c 0,0 0,0 0,0 v 12 c 0,0 0,0 0,0 h 8 c 0,0 0,0 0,0 v 4 c 0,0 0,0 0,0 h -4 c 0,0 0,0 0,0 v 8 c 0,0 0,0 0,0 h 4 c 0,0 0,0 0,0 v 12 c 0,0 0,0 0,0 h -4 c 0,0 0,0 0,0 v -8 c 0,0 0,0 0,0 h -8 c 0,0 0,0 0,0 v -4 c 0,0 0,0 0,0 h 4 c 0,0 0,0 0,0 v -8 c 0,0 0,0 0,0 h -4 c 0,0 0,0 0,0 v 8 c 0,0 0,0 0,0 h -4 c 0,0 0,0 0,0 v 4 c 0,0 0,0 0,0 h 4 c 0,0 0,0 0,0 v 4 c 0,0 0,0 0,0 h -8 c 0,0 0,0 0,0 v 4 c 0,0 0,0 0,0 h -4 c 0,0 0,0 0,0 v -8 c 0,0 0,0 0,0 h -4 c 0,0 0,0 0,0 v 4 c 0,0 0,0 0,0 h -4 c 0,0 0,0 0,0 z m -8,0 h -4 c 0,0 0,0 0,0 v -8 c 0,0 0,0 0,0 h 4 c 0,0 0,0 0,0 z m -16,0 h -4 c 0,0 0,0 0,0 v -4 c 0,0 0,0 0,0 h 4 c 0,0 0,0 0,0 z m -16,0 H 48 c 0,0 0,0 0,0 v -16 c 0,0 0,0 0,0 h 4 c 0,0 0,0 0,0 v 4 c 0,0 0,0 0,0 h 4 c 0,0 0,0 0,0 v -4 c 0,0 0,0 0,0 h 8 c 0,0 0,0 0,0 v -4 c 0,0 0,0 0,0 h 4 c 0,0 0,0 0,0 v -4 c 0,0 0,0 0,0 h 8 c 0,0 0,0 0,0 v 8 c 0,0 0,0 0,0 h -8 c 0,0 0,0 0,0 v 4 c 0,0 0,0 0,0 h -4 c 0,0 0,0 0,0 v 8 c 0,0 0,0 0,0 h -4 c 0,0 0,0 0,0 v -4 c 0,0 0,0 0,0 h -8 c 0,0 0,0 0,0 v 4 c 0,0 0,0 0,0 h 8 c 0,0 0,0 0,0 z m -16,0 H 16 c 0,0 0,0 0,0 v -28 c 0,0 0,0 0,0 h 28 c 0,0 0,0 0,0 z m 36,-4 h -4 c 0,0 0,0 0,0 v -4 c 0,0 0,0 0,0 h 4 c 0,0 0,0 0,0 z m -40,0 v -20 c 0,0 0,0 0,0 H 20 c 0,0 0,0 0,0 v 20 c 0,0 0,0 0,0 z m 84,-4 h -4 c 0,0 0,0 0,0 v -4 c 0,0 0,0 0,0 h 4 c 0,0 0,0 0,0 z m -48,0 h -4 c 0,0 0,0 0,0 v -4 c 0,0 0,0 0,0 h 4 c 0,0 0,0 0,0 z m -40,0 H 24 c 0,0 0,0 0,0 v -12 c 0,0 0,0 0,0 h 12 c 0,0 0,0 0,0 z m 20,-8 h -4 c 0,0 0,0 0,0 v -4 c 0,0 0,0 0,0 h 4 c 0,0 0,0 0,0 z m 56,-4 v -12 c 0,0 0,0 0,0 h -12 c 0,0 0,0 0,0 v 12 c 0,0 0,0 0,0 z m -4,-4 h -4 c 0,0 0,0 0,0 v -4 c 0,0 0,0 0,0 h 4 c 0,0 0,0 0,0 z m -40,0 H 56 c 0,0 0,0 0,0 v -4 c 0,0 0,0 0,0 h 8 c 0,0 0,0 0,0 v -4 c 0,0 0,0 0,0 h -4 c 0,0 0,0 0,0 v -4 c 0,0 0,0 0,0 h 4 c 0,0 0,0 0,0 v -4 c 0,0 0,0 0,0 h -4 c 0,0 0,0 0,0 v -4 c 0,0 0,0 0,0 h 4 c 0,0 0,0 0,0 v -4 c 0,0 0,0 0,0 h 4 c 0,0 0,0 0,0 v -4 c 0,0 0,0 0,0 h 4 c 0,0 0,0 0,0 v 8 c 0,0 0,0 0,0 h -4 c 0,0 0,0 0,0 z m 24,-4 v -4 c 0,0 0,0 0,0 h -8 c 0,0 0,0 0,0 v 4 c 0,0 0,0 0,0 z m -40,0 h -4 c 0,0 0,0 0,0 v -4 c 0,0 0,0 0,0 h 4 c 0,0 0,0 0,0 z m -4,-4 H 36 c 0,0 0,0 0,0 v -4 c 0,0 0,0 0,0 h -4 c 0,0 0,0 0,0 v -4 c 0,0 0,0 0,0 h 4 c 0,0 0,0 0,0 v -4 c 0,0 0,0 0,0 h 8 c 0,0 0,0 0,0 v 4 c 0,0 0,0 0,0 h -4 c 0,0 0,0 0,0 v 4 c 0,0 0,0 0,0 h 8 c 0,0 0,0 0,0 z m -24,0 h -4 c 0,0 0,0 0,0 v -4 c 0,0 0,0 0,0 h 4 c 0,0 0,0 0,0 z m 28,-4 h -4 c 0,0 0,0 0,0 v -8 c 0,0 0,0 0,0 h 8 c 0,0 0,0 0,0 v 4 c 0,0 0,0 0,0 h -4 c 0,0 0,0 0,0 z m -24,0 h -4 c 0,0 0,0 0,0 v -4 c 0,0 0,0 0,0 h 4 c 0,0 0,0 0,0 z m 4,-4 h -4 c 0,0 0,0 0,0 v -4 c 0,0 0,0 0,0 h 4 c 0,0 0,0 0,0 z m -12,0 h -4 c 0,0 0,0 0,0 v -4 c 0,0 0,0 0,0 h 4 c 0,0 0,0 0,0 z m 80,-4 h -4 c 0,0 0,0 0,0 V 76 c 0,0 0,0 0,0 h -4 c 0,0 0,0 0,0 v 4 c 0,0 0,0 0,0 h -4 c 0,0 0,0 0,0 v -8 c 0,0 0,0 0,0 h 4 c 0,0 0,0 0,0 v -4 c 0,0 0,0 0,0 h 4 c 0,0 0,0 0,0 v 4 c 0,0 0,0 0,0 h 4 c 0,0 0,0 0,0 v 4 c 0,0 0,0 0,0 h 4 c 0,0 0,0 0,0 v 8 c 0,0 0,0 0,0 h -4 c 0,0 0,0 0,0 z m -12,0 h -4 c 0,0 0,0 0,0 v -4 c 0,0 0,0 0,0 h 4 c 0,0 0,0 0,0 z m -28,0 h -4 c 0,0 0,0 0,0 v -4 c 0,0 0,0 0,0 h 4 c 0,0 0,0 0,0 z m -24,0 h -4 c 0,0 0,0 0,0 v -4 c 0,0 0,0 0,0 h 4 c 0,0 0,0 0,0 z m -8,0 h -8 c 0,0 0,0 0,0 v -4 c 0,0 0,0 0,0 h -4 c 0,0 0,0 0,0 v -4 c 0,0 0,0 0,0 h 8 c 0,0 0,0 0,0 v 4 c 0,0 0,0 0,0 h 4 c 0,0 0,0 0,0 z m 36,-4 h -4 c 0,0 0,0 0,0 v -4 c 0,0 0,0 0,0 h 4 c 0,0 0,0 0,0 z M 52,84 H 36 c 0,0 0,0 0,0 V 72 c 0,0 0,0 0,0 h -4 c 0,0 0,0 0,0 v -8 c 0,0 0,0 0,0 h 4 c 0,0 0,0 0,0 v 4 c 0,0 0,0 0,0 h 4 c 0,0 0,0 0,0 v 4 c 0,0 0,0 0,0 h 4 c 0,0 0,0 0,0 v -4 c 0,0 0,0 0,0 h -4 c 0,0 0,0 0,0 v -4 c 0,0 0,0 0,0 h 8 c 0,0 0,0 0,0 v 8 c 0,0 0,0 0,0 h 4 c 0,0 0,0 0,0 v 4 c 0,0 0,0 0,0 h -4 c 0,0 0,0 0,0 v 4 c 0,0 0,0 0,0 h 4 c 0,0 0,0 0,0 z m -20,0 h -4 c 0,0 0,0 0,0 v -4 c 0,0 0,0 0,0 h 4 c 0,0 0,0 0,0 z m 52,-4 h -8 c 0,0 0,0 0,0 v -4 c 0,0 0,0 0,0 h 8 c 0,0 0,0 0,0 z m -16,0 h -4 c 0,0 0,0 0,0 v -8 c 0,0 0,0 0,0 h 4 c 0,0 0,0 0,0 z m -8,0 h -8 c 0,0 0,0 0,0 v -4 c 0,0 0,0 0,0 h 4 c 0,0 0,0 0,0 v -4 c 0,0 0,0 0,0 h -4 c 0,0 0,0 0,0 v -8 c 0,0 0,0 0,0 h 4 c 0,0 0,0 0,0 v 4 c 0,0 0,0 0,0 h 4 c 0,0 0,0 0,0 v -8 c 0,0 0,0 0,0 h 8 c 0,0 0,0 0,0 v -8 c 0,0 0,0 0,0 h 4 c 0,0 0,0 0,0 v 8 c 0,0 0,0 0,0 h 4 c 0,0 0,0 0,0 v 4 c 0,0 0,0 0,0 h -4 c 0,0 0,0 0,0 v 4 c 0,0 0,0 0,0 h 4 c 0,0 0,0 0,0 v -4 c 0,0 0,0 0,0 h 4 c 0,0 0,0 0,0 v 4 c 0,0 0,0 0,0 h 4 c 0,0 0,0 0,0 v 4 c 0,0 0,0 0,0 h -8 c 0,0 0,0 0,0 v 4 c 0,0 0,0 0,0 h -4 c 0,0 0,0 0,0 v -4 c 0,0 0,0 0,0 h -4 c 0,0 0,0 0,0 v -8 c 0,0 0,0 0,0 h -4 c 0,0 0,0 0,0 v 8 c 0,0 0,0 0,0 h -4 c 0,0 0,0 0,0 z m -16,0 v -4 c 0,0 0,0 0,0 h -4 c 0,0 0,0 0,0 v 4 c 0,0 0,0 0,0 z m -16,0 h -4 c 0,0 0,0 0,0 v -4 c 0,0 0,0 0,0 h 4 c 0,0 0,0 0,0 z m 4,-4 h -4 c 0,0 0,0 0,0 v -4 c 0,0 0,0 0,0 h 4 c 0,0 0,0 0,0 z m -12,0 h -4 c 0,0 0,0 0,0 V 60 c 0,0 0,0 0,0 h 8 c 0,0 0,0 0,0 v -4 c 0,0 0,0 0,0 h 4 c 0,0 0,0 0,0 v 4 c 0,0 0,0 0,0 h 4 c 0,0 0,0 0,0 v 4 c 0,0 0,0 0,0 h -8 c 0,0 0,0 0,0 v 4 c 0,0 0,0 0,0 h 4 c 0,0 0,0 0,0 v 4 c 0,0 0,0 0,0 h -8 c 0,0 0,0 0,0 z m 68,-8 h -4 c 0,0 0,0 0,0 v -4 c 0,0 0,0 0,0 h 4 c 0,0 0,0 0,0 z m 44,-4 h -4 c 0,0 0,0 0,0 v -4 c 0,0 0,0 0,0 h 4 c 0,0 0,0 0,0 z m -16,0 h -4 c 0,0 0,0 0,0 V 48 c 0,0 0,0 0,0 h 12 c 0,0 0,0 0,0 v 4 c 0,0 0,0 0,0 h -8 c 0,0 0,0 0,0 z m -8,0 h -8 c 0,0 0,0 0,0 v -8 c 0,0 0,0 0,0 H 88 c 0,0 0,0 0,0 v -4 c 0,0 0,0 0,0 H 72 c 0,0 0,0 0,0 V 36 c 0,0 0,0 0,0 h -4 c 0,0 0,0 0,0 v -8 c 0,0 0,0 0,0 h -4 c 0,0 0,0 0,0 v 8 c 0,0 0,0 0,0 h -8 c 0,0 0,0 0,0 v 4 c 0,0 0,0 0,0 h -4 c 0,0 0,0 0,0 v -4 c 0,0 0,0 0,0 h -4 c 0,0 0,0 0,0 V 24 c 0,0 0,0 0,0 h 4 c 0,0 0,0 0,0 v 4 c 0,0 0,0 0,0 h 4 c 0,0 0,0 0,0 v 4 c 0,0 0,0 0,0 h 4 c 0,0 0,0 0,0 v -8 c 0,0 0,0 0,0 h 16 c 0,0 0,0 0,0 v 4 c 0,0 0,0 0,0 h 4 c 0,0 0,0 0,0 v 4 c 0,0 0,0 0,0 h 4 c 0,0 0,0 0,0 v -4 c 0,0 0,0 0,0 h 4 c 0,0 0,0 0,0 v 12 c 0,0 0,0 0,0 h -4 c 0,0 0,0 0,0 v 4 c 0,0 0,0 0,0 h 4 c 0,0 0,0 0,0 v -4 c 0,0 0,0 0,0 h 4 c 0,0 0,0 0,0 v 12 c 0,0 0,0 0,0 h 8 c 0,0 0,0 0,0 v -4 c 0,0 0,0 0,0 h 4 c 0,0 0,0 0,0 v 4 c 0,0 0,0 0,0 h 4 c 0,0 0,0 0,0 z m -16,0 h -4 c 0,0 0,0 0,0 v -4 c 0,0 0,0 0,0 h 4 c 0,0 0,0 0,0 z m -40,0 h -4 c 0,0 0,0 0,0 v -8 c 0,0 0,0 0,0 h -4 c 0,0 0,0 0,0 v -4 c 0,0 0,0 0,0 h 4 c 0,0 0,0 0,0 v -4 c 0,0 0,0 0,0 h 4 c 0,0 0,0 0,0 v 4 c 0,0 0,0 0,0 h 4 c 0,0 0,0 0,0 v 4 c 0,0 0,0 0,0 h -4 c 0,0 0,0 0,0 z m 76,-4 h -8 c 0,0 0,0 0,0 v -4 c 0,0 0,0 0,0 h 8 c 0,0 0,0 0,0 z m -40,0 h -8 c 0,0 0,0 0,0 v -4 c 0,0 0,0 0,0 h 8 c 0,0 0,0 0,0 z m -44,0 h -4 c 0,0 0,0 0,0 v -4 c 0,0 0,0 0,0 h 4 c 0,0 0,0 0,0 z m 88,-4 h -4 c 0,0 0,0 0,0 v -8 c 0,0 0,0 0,0 h 4 c 0,0 0,0 0,0 z m -92,0 h -4 c 0,0 0,0 0,0 v -4 c 0,0 0,0 0,0 h 4 c 0,0 0,0 0,0 z m 4,-4 h -4 c 0,0 0,0 0,0 v -4 c 0,0 0,0 0,0 h 4 c 0,0 0,0 0,0 z M 32,52 H 16 c 0,0 0,0 0,0 v -4 c 0,0 0,0 0,0 h 16 c 0,0 0,0 0,0 z m 68,-4 h -4 c 0,0 0,0 0,0 v -8 c 0,0 0,0 0,0 h 4 c 0,0 0,0 0,0 z m -36,0 h -4 c 0,0 0,0 0,0 v -4 c 0,0 0,0 0,0 h 4 c 0,0 0,0 0,0 z m -8,0 h -4 c 0,0 0,0 0,0 v -4 c 0,0 0,0 0,0 h 4 c 0,0 0,0 0,0 z m 76,-4 h -28 c 0,0 0,0 0,0 V 16 c 0,0 0,0 0,0 h 28 c 0,0 0,0 0,0 z m -52,0 v -8 c 0,0 0,0 0,0 h -4 c 0,0 0,0 0,0 v 8 c 0,0 0,0 0,0 z m -12,0 h -4 c 0,0 0,0 0,0 v -8 c 0,0 0,0 0,0 h 4 c 0,0 0,0 0,0 z m -8,0 h -4 c 0,0 0,0 0,0 v -4 c 0,0 0,0 0,0 h 4 c 0,0 0,0 0,0 z m -8,0 h -4 c 0,0 0,0 0,0 v -4 c 0,0 0,0 0,0 h 4 c 0,0 0,0 0,0 z m -8,0 H 16 c 0,0 0,0 0,0 V 16 c 0,0 0,0 0,0 h 28 c 0,0 0,0 0,0 z m 84,-4 V 20 c 0,0 0,0 0,0 h -20 c 0,0 0,0 0,0 v 20 c 0,0 0,0 0,0 z m -32,0 h -4 c 0,0 0,0 0,0 V 28 c 0,0 0,0 0,0 h 4 c 0,0 0,0 0,0 z M 40,40 V 20 c 0,0 0,0 0,0 H 20 c 0,0 0,0 0,0 v 20 c 0,0 0,0 0,0 z m 84,-4 h -12 c 0,0 0,0 0,0 V 24 c 0,0 0,0 0,0 h 12 c 0,0 0,0 0,0 z M 36,36 H 24 c 0,0 0,0 0,0 V 24 c 0,0 0,0 0,0 h 12 c 0,0 0,0 0,0 z m 64,-8 h -4 c 0,0 0,0 0,0 v -8 c 0,0 0,0 0,0 h -8 c 0,0 0,0 0,0 v 4 c 0,0 0,0 0,0 h -4 c 0,0 0,0 0,0 v -4 c 0,0 0,0 0,0 h -4 c 0,0 0,0 0,0 v -4 c 0,0 0,0 0,0 h 20 c 0,0 0,0 0,0 z m -8,0 h -4 c 0,0 0,0 0,0 v -4 c 0,0 0,0 0,0 h 4 c 0,0 0,0 0,0 z M 56,20 h -8 c 0,0 0,0 0,0 v -4 c 0,0 0,0 0,0 h 8 c 0,0 0,0 0,0 z"
       id="path321" />
  </g>
</svg>
